<?xml version="1.0" encoding="utf-8"?>
<!-- Designed by Vexels.com - 2019 All Rights Reserved - https://vexels.com/terms-and-conditions/  -->
<svg version="1.1" id="Capa_1" xmlns="http://www.w3.org/2000/svg" xmlns:xlink="http://www.w3.org/1999/xlink" x="0px" y="0px"
	 viewBox="0 0 1200 1200" enable-background="new 0 0 1200 1200" xml:space="preserve">
<path fill="#3A3B39" d="M979.979,375.303c-0.166,2.736-1.145,4.042-2.497,5.001c-2.243,1.592-4.445,3.342-6.91,4.504
	c-7.804,3.679-15.863,6.658-24.522,7.647c-6.318,0.722-12.637,0.57-18.958,0.039c-1.91-0.16-3.818-0.713-6.013-0.053
	c-0.075,0.938-0.28,1.878-0.204,2.794c0.859,10.354,1.699,20.711,2.669,31.056c1.031,10.99,2.211,21.967,3.302,32.952
	c1.203,12.116,2.381,24.234,3.568,36.352c0.696,7.108,1.352,14.221,2.091,21.325c0.756,7.266,1.638,14.518,2.379,21.785
	c0.609,5.972,1.065,11.959,1.637,17.934c1.207,12.603,2.474,25.201,3.663,37.805c0.823,8.725,1.547,17.46,2.337,26.188
	c0.834,9.214,1.71,18.424,2.535,27.639c0.406,4.528,0.724,9.063,1.108,13.593c0.932,10.998,1.897,21.993,2.816,32.992
	c0.77,9.221,1.452,18.449,2.248,27.668c0.795,9.217,1.694,18.425,2.526,27.638c0.775,8.567,1.511,17.138,2.285,25.705
	c0.862,9.537,1.754,19.072,2.619,28.609c0.381,4.203,0.758,8.408,1.086,12.615c0.757,9.709,1.445,19.424,2.233,29.131
	c0.801,9.869,1.698,19.731,2.531,29.597c0.396,4.691,0.771,9.383,1.104,14.079c0.77,10.849,1.455,21.704,2.276,32.549
	c0.784,10.358,1.69,20.706,2.555,31.058c0.689,8.248,1.363,16.498,2.11,24.741c0.527,5.817,1.279,11.615,1.724,17.437
	c0.519,6.798,0.824,13.613,1.2,20.421c0.117,2.107,0.112,4.222,0.254,6.327c0.321,4.751,1.271,9.275,4.185,13.262
	c1.511,2.068,2.601,4.443,3.972,6.838c1.09-0.207,2.083-0.21,2.91-0.582c7.843-3.526,15.66-7.111,23.48-10.687
	c8.274-3.784,16.658-7.206,25.724-8.682c3.648-0.594,7.156-0.163,10.536,1.041c2.892,1.03,5.705,2.347,8.422,3.786
	c3.728,1.974,7.43,4.03,10.969,6.321c11.036,7.144,21.988,14.418,32.976,21.636c3.248,2.133,6.507,4.249,9.986,6.519
	c1.077-1.24,2.071-2.272,2.938-3.402c4.66-6.072,14.964-7.356,20.826-3.714c2.367,1.47,4.717,2.946,6.421,5.147
	c4.92,6.352,8.805,13.247,10.401,21.231c0.316,1.581,0.444,3.213,0.512,4.828c0.226,5.363-2.158,9.441-6.571,12.257
	c-6.636,4.235-13.712,5.767-21.341,2.828c-0.75-0.289-1.519-0.525-2.585-0.891c-0.484,1.048-0.938,2.01-1.375,2.979
	c-1.729,3.835-4.962,5.5-9.081,4.639c-3.406-0.712-6.451-2.151-9.03-4.529c-1.174-1.082-2.389-2.119-3.464-3.068
	c-1.637,0.464-1.168,1.637-1.289,2.486c-0.445,3.12-2.266,4.875-5.229,5.693c-2.866,0.791-5.712,1.246-8.612,0.227
	c-2.595-0.912-5.19-1.824-7.786-2.73c-0.588-0.205-1.186-0.384-2.013-0.65c-0.353,1.234-0.587,2.319-0.974,3.345
	c-0.633,1.68-1.827,2.615-3.715,2.548c-1.622-0.058-3.255-0.153-4.868-0.036c-2.423,0.175-4.828,0.59-7.251,0.771
	c-2.097,0.157-4.222,0.316-6.308,0.147c-5.489-0.446-10.968-1.018-16.44-1.644c-3.38-0.387-6.738-0.967-10.105-1.459
	c-1.444-0.211-2.887-0.597-4.332-0.601c-8.599-0.028-17.2-0.024-25.798,0.106c-1.922,0.029-3.833,0.609-5.752,0.92
	c-7.899,1.28-15.875,0.902-23.812,0.845c-7.109-0.051-13.819-1.912-19.419-6.648c-1.11-0.939-2.241-1.913-3.112-3.061
	c-1.814-2.391-4.137-4.1-6.702-5.545c-8.354-4.707-16.3-10.045-24.239-15.414c-10.624-7.185-21.379-14.178-32.166-21.117
	c-21.589-13.887-42.509-28.743-63.008-44.161c-21.937-16.499-43.302-33.743-63.306-52.582
	c-12.658-11.921-24.638-24.486-35.434-38.167c-8.351-10.583-17.07-20.86-27.179-29.87c-2.538-2.262-4.765-4.875-7.124-7.337
	c-3.319-3.463-5.484-7.631-7.238-12.029c-2.344-5.878-4.56-11.808-6.973-17.656c-1.034-2.507-1.837-5.18-3.742-7.489
	c-1.022,0.311-1.964,0.485-2.809,0.872c-17.626,8.074-36.12,13.541-54.774,18.63c-22.248,6.069-44.742,11.016-67.346,15.492
	c-26.278,5.204-52.342,11.269-78.128,18.538c-16.646,4.693-32.383,11.391-47.471,19.883c-8.719,4.907-16.829,10.34-23.642,17.707
	c-2.526,2.731-5.484,5.063-8.233,7.589c-0.585,0.537-1.12,1.128-1.769,1.787c0.488,2.148,1.563,3.958,2.471,5.832
	c7.515,15.502,14.235,31.332,19.076,47.888c2.321,7.936,4.463,15.942,6.23,24.017c1.177,5.377,4.308,9.407,7.799,13.214
	c1.33,1.45,3.541,2.252,5.495,2.942c6.311,2.227,12.898,3.214,19.535,3.849c5.824,0.557,11.604,1.307,17.243,2.958
	c4.601,1.347,8.555,3.667,12.18,6.852c9.342,8.21,14.091,18.841,16.787,30.636c0.179,0.782,0.203,1.615,0.188,2.422
	c-0.094,5.091-0.948,5.574-5.163,6.804c-8.786,2.565-17.773,3.682-26.841,4.461c-18.804,1.616-37.647,1.025-56.479,1.074
	c-1.896,0.005-3.895-0.519-5.812,0.745c0,0.753-0.169,1.591,0.027,2.333c1.541,5.853,0.438,11.631-0.556,17.376
	c-0.553,3.194-2.371,4.544-5.464,4.334c-5.552-0.376-11.004,0.657-16.507,0.943c-1.62,0.084-3.235,0.29-4.855,0.327
	c-12.664,0.291-25.328,0.571-37.993,0.813c-2.758,0.053-5.52-0.077-8.28-0.09c-4.382-0.02-8.768-0.115-13.146,0.008
	c-8.44,0.237-16.866,0.588-25.306-0.269c-5.808-0.59-11.675-0.594-17.481-1.195c-7.324-0.759-14.235-3.116-20.911-6.185
	c-4.401-2.023-7.913-5.083-10.601-9.069c-7.534-11.17-15.032-22.365-22.531-33.559c-3.163-4.72-6.269-9.479-9.456-14.182
	c-0.793-1.17-1.801-2.195-2.795-3.389c-1.769,0.702-3.253,1.302-4.745,1.88c-6.692,2.594-15.632,0.675-20.734-4.466
	c-0.914-0.921-1.869-1.831-2.62-2.879c-6.237-8.706-12.622-17.291-17.066-27.161c-2.803-6.223-3.588-12.336-1.545-18.898
	c1.069-3.434,2.344-6.635,4.406-9.655c5.497-8.05,9.791-16.786,13.983-25.576c2.372-4.973,4.995-9.841,7.761-14.609
	c3.42-5.895,6.947-11.741,10.712-17.42c5.564-8.392,13.537-13.375,23.355-15.334c3.005-0.6,6.099-0.87,9.165-1.009
	c1.849-0.084,3.406-0.58,5.058-1.384c9.829-4.786,18.581-11.286,27.66-17.256c7.866-5.173,15.618-10.522,23.341-15.907
	c3.858-2.69,7.554-5.615,11.299-8.465c5.038-3.834,10.062-7.687,15.071-11.558c1-0.773,1.908-1.667,2.827-2.477
	c-0.874-1.781-2.315-1.355-3.504-1.291c-4.539,0.243-9.081,0.511-13.606,0.931c-10.986,1.019-21.963,2.136-32.945,3.194
	c-1.453,0.14-2.917,0.161-4.376,0.25c-4.696,0.287-9.392,0.589-14.088,0.868c-6.006,0.357-11.988,0.373-17.982-0.455
	c-6.427-0.888-12.901-1.433-19.343-2.22c-4.505-0.55-9.008-1.157-13.483-1.914c-6.878-1.164-13.729-2.484-20.593-3.727
	c-8.356-1.513-16.278-4.391-24.035-7.744c-4.617-1.996-9.215-4.053-13.721-6.286c-15.48-7.673-29.154-17.614-39.345-31.836
	c-2.647-3.695-5.371-7.343-7.852-11.147c-8.274-12.685-13.244-26.717-16.334-41.435c-2.642-12.585-3.562-25.364-3.954-38.208
	c-0.157-5.154-0.901-10.328-2.253-15.331c-3.232-11.963-5.023-24.142-5.626-36.491c-0.456-9.338-0.424-7.587,5.005-13.866
	c2.219-2.567,4.802-4.843,7.372-7.075c1.798-1.561,2.922-3.383,3.58-5.641c0.817-2.802,1.849-5.541,2.742-8.321
	c2.589-8.063,5.901-15.804,10.109-23.163c2.337-4.086,4.493-8.276,6.865-12.341c2.699-4.623,5.302-9.332,8.382-13.696
	c6.739-9.548,13.743-18.909,20.657-28.334c5.473-7.461,11.058-14.833,15.742-22.848c8.867-15.171,19.04-29.44,30.163-43.037
	c2.262-2.765,4.446-5.593,6.698-8.367c13.448-16.571,28.699-31.372,44.585-45.563c10.316-9.216,21.382-17.421,32.792-25.221
	c16.763-11.46,34.105-22.001,51.325-32.736c13.927-8.682,28.455-16.298,43.367-23.135c11.651-5.342,23.367-10.57,35.248-15.37
	c9.017-3.643,18.35-6.5,27.514-9.787c1.81-0.649,3.739-1.361,5.186-2.559c9.788-8.103,20.656-14.642,31.1-21.797
	c10.06-6.892,20.473-13.175,31.357-18.681c17.539-8.873,35.532-16.738,53.69-24.233c4.347-1.794,8.786-3.367,13.182-5.042
	c7.505-2.859,15.358-3.98,23.293-4.806c10.53-1.095,21.084-0.827,31.635-0.776c3.894,0.019,7.796,0.133,11.68,0.411
	c9.1,0.653,17.902,2.991,26.78,4.903c7.986,1.72,15.442,4.913,22.919,8.056c3.888,1.634,7.852,3.014,11.975,4.052
	c2.192-1.527,1.772-4.151,2.821-6.078c0.999-1.834,1.924-3.709,2.803-5.413c3.507-0.986,4.79,2.056,7.247,3.211
	c1.689-1.289,3.406-0.945,5.075,0.478c0.934,0.797,1.636,2.103,3.554,1.779c0.123-0.636,0.359-1.375,0.393-2.123
	c0.15-3.243,0.201-6.491,0.362-9.734c0.387-7.742,2.495-15.042,6.022-21.902c12.218-23.762,31.063-40.02,56.067-49.242
	c6.597-2.433,13.532-3.37,20.419-4.435c10.587-1.638,21.215-2.947,31.926-3.556c6.496-0.369,12.968-0.643,19.452,0.096
	c1.25,0.142,2.53,0.02,4.248,0.02c-0.422-1.096-0.54-1.912-0.983-2.467c-2.725-3.414-3.946-7.351-4.603-11.614
	c-1.239-8.048-1.705-16.133-1.798-24.262c-0.041-3.56-0.423-7.117-0.652-10.675c-0.242-3.777,0.01-7.45,1.905-10.87
	c2.995-5.405,5.422-11.068,7.586-16.855c0.908-2.428,1.974-4.808,3.136-7.126c0.869-1.732,1.873-3.432,3.051-4.968
	c5.78-7.539,15.65-8.785,23.253-2.986c1.273,0.971,2.456,2.059,4.229,3.555c0.769-1.06,1.371-2.018,2.099-2.869
	c2.954-3.455,5.868-6.949,8.955-10.283c1.756-1.897,3.724-3.63,5.759-5.229c4.559-3.579,9.713-4.419,15.159-2.528
	c2.743,0.952,5.413,2.211,7.956,3.62c3.966,2.197,6.24,5.582,6.3,10.26c0.016,1.269,0.085,2.537,0.132,3.847
	c1.976,0.889,3.781,0.364,5.466,0.188c6.831-0.716,11.492,2.527,15.08,7.89c2.709,4.049,2.721,9.86-0.785,13.534
	c-0.77,0.807-1.442,1.708-2.358,2.802c0.635,0.818,1.18,1.562,1.768,2.27c1.553,1.87,3.246,3.636,4.662,5.604
	c2.688,3.735,2.559,7.561-0.1,11.293c-0.933,1.31-1.933,2.572-3.008,3.994c0.571,1.031,1.104,2.005,1.648,2.972
	c2.452,4.358,2.969,8.898,1.115,13.584c-0.713,1.802-1.628,3.532-2.539,5.247c-1.215,2.287-2.621,4.477-3.742,6.807
	c-0.754,1.566-1.895,2.619-3.329,3.415c-1.698,0.942-3.448,1.791-5.438,2.815c-0.078,1.191-0.294,2.462-0.221,3.715
	c0.337,5.834,0.765,11.663,1.141,17.495c0.586,9.071,1.147,18.144,1.734,27.215c0.902,13.932,1.828,27.863,2.725,41.796
	c0.651,10.111,0.24,11.259,4.643,20.685c2.608,5.585,3.415,11.814,4.355,17.921c1.34,8.718,1.418,17.472,0.777,26.236
	c-0.169,2.304,0.389,3.912,2.144,5.516c7.068,6.462,14.073,13.001,20.931,19.686c7.911,7.711,15.984,15.23,24.546,22.216
	C978.832,374.525,979.513,374.966,979.979,375.303z M952.236,1012.485c1.503-0.426,3.171-1.089,4.897-1.333
	c1.695-0.239,3.45-0.052,5.432-0.052c0-1.337,0.057-2.446-0.01-3.549c-0.334-5.509-0.718-11.014-1.053-16.523
	c-0.778-12.802-1.51-25.607-2.32-38.408c-0.297-4.698-0.722-9.388-1.156-14.076c-1.121-12.123-2.285-24.242-3.42-36.363
	c-1.104-11.799-2.186-23.6-3.291-35.399c-1.151-12.284-2.31-24.566-3.479-36.848c-1.43-15.029-2.844-30.059-4.32-45.084
	c-1.524-15.505-3.113-31.004-4.676-46.505c-0.423-4.198-0.856-8.395-1.281-12.593c-0.49-4.843-1.007-9.684-1.455-14.531
	c-0.807-8.726-1.536-17.459-2.361-26.183c-1.1-11.633-2.335-23.253-3.372-34.891c-0.878-9.861-1.56-19.74-2.325-29.611
	c-0.376-4.855-0.752-9.71-1.115-14.566c-0.859-11.491-1.715-22.983-2.563-34.475c-0.777-10.524-1.48-21.053-2.326-31.571
	c-1.093-13.593-2.287-27.178-3.452-40.765c-1.067-12.455-2.147-24.909-3.249-37.361c-0.045-0.512,0.173-1.298-1.034-1.456
	c-0.683,2.823-0.914,5.697-0.987,8.587c-0.195,7.815-1.315,15.511-2.841,23.165c-0.611,3.065-1.785,5.861-3.29,8.585
	c-3.095,5.604-7.32,10.246-11.672,14.887c-3.765,4.014-7.935,7.138-13.024,9.11c-1.966,0.762-3.931,1.527-5.89,2.308
	c-5.868,2.34-11.928,3.019-18.149,1.963c-5.597-0.951-11.231-1.774-16.747-3.082c-9.152-2.171-18.207-4.743-27.33-7.041
	c-9.77-2.46-19.341-5.535-28.768-9.066c-12.916-4.837-25.795-9.776-38.717-14.598c-7.464-2.786-14.827-5.796-21.726-9.794
	c-5.608-3.251-11.291-6.358-16.528-10.267c-4.929-3.679-10.291-6.778-15.49-10.089c-0.321-0.204-0.885-0.027-1.551-0.027
	c-0.111,1.203-0.27,2.3-0.304,3.4c-0.108,3.571,0.038,7.163-0.304,10.71c-0.388,4.023-1.137,8.015-1.841,12.001
	c-0.47,2.664-1.981,4.098-4.857,4.591c-4.625,0.794-9.168,2.073-13.734,3.195c-0.581,0.143-1.091,0.573-1.676,0.893
	c0.177,0.804,0.294,1.434,0.455,2.053c2.58,9.889,5.15,19.78,7.759,29.661c1.049,3.971,1.304,7.98,1,12.067
	c-0.301,4.044-0.451,8.1-0.646,12.151c-0.164,3.406-0.235,6.817-0.452,10.219c-1.096,17.236-0.326,34.402,1.972,51.502
	c0.821,6.109,1.859,12.189,2.835,18.276c0.148,0.925,0.501,1.817,0.789,2.829c1.085,0.197,2.023,0.396,2.97,0.534
	c5.297,0.772,10.614,1.427,15.893,2.312c15.071,2.527,29.841,6.375,44.354,11.068c11.261,3.641,22.321,7.917,33.402,12.092
	c3.476,1.31,6.778,3.117,10.072,4.862c6.248,3.311,10.112,8.495,11.657,15.399c0.142,0.634,0.272,1.271,0.372,1.912
	c1.354,8.653,2.743,17.3,4.04,25.962c1.311,8.758,1.16,17.591-0.718,26.168c-2.147,9.805-4.86,19.504-8.281,28.99
	c-1.922,5.329-4.886,9.859-8.748,13.883c-1.348,1.404-2.809,2.698-4.21,4.051c-7.421,7.17-16.339,12.241-24.919,17.789
	c-0.788,0.51-1.51,1.122-2.207,1.645c0.045,0.704-0.044,1.229,0.125,1.65c2.693,6.713,6.435,12.595,12.039,17.416
	c12.563,10.808,24.548,22.242,35.319,34.878c13.178,15.459,25.315,31.74,37.237,48.159c11.086,15.268,23.029,29.809,35.465,43.956
	c11.041,12.56,22.45,24.795,33.541,37.311c7.65,8.633,15.348,17.211,23.675,25.198c4.921,4.72,9.927,9.351,14.947,13.965
	c0.737,0.677,1.438,1.844,3.091,1.086c-0.237-0.889-0.44-1.797-0.72-2.681c-1.931-6.116-1.939-6.127,0.433-12.06
	C951.601,1013.638,951.854,1013.229,952.236,1012.485z"/>
</svg>
